<?xml version="1.0" encoding="utf-8"?>
<!-- Generator: Adobe Illustrator 22.0.1, SVG Export Plug-In . SVG Version: 6.00 Build 0)  -->
<svg version="1.1" id="Layer_1" xmlns="http://www.w3.org/2000/svg" xmlns:xlink="http://www.w3.org/1999/xlink" x="0px" y="0px"
	 viewBox="0 0 700 700" style="enable-background:new 0 0 700 700;" xml:space="preserve">
<style type="text/css">
	.st0{fill:none;stroke:#000000;stroke-miterlimit:10;}
</style>
<title>Asset 1</title>
<g id="Layer_2_1_">
	<g id="Layer_1-2">
		<path d="M658,251.3c0-0.7,0-3.2-2.9-2.9c-3.8,0.6-6.6,5.3-26.8,25.4c-26.6,26.5-32.3,31-45.8,36.2c-15.4,5.9-15.2,5.9-103.3,5.9
			h-80.4v-7c0-6.6-0.1-7-2.2-7.1c-1.3,0-6.3-0.1-11.3-0.1h-9l-0.3,7.1l-0.3,7.2l-14.2-0.3l-14.2-0.3l-0.3-6.8
			c-0.2-5-0.7-6.7-1.7-6.8c-0.8,0-5.7-0.1-10.7-0.1l-9.3-0.1l-0.3,7.2l-0.3,7.2l-14.2-0.3l-14.2-0.3l-0.3-6.8
			c-0.2-4.3-0.7-6.7-1.5-6.8s-5.5-0.1-10.7-0.1l-9.5-0.2l-0.3,7.2l-0.3,7.2H175c-66.4,0-99.9-0.3-102.2-1.1
			c-1.9-0.5-4.2-1.2-5.1-1.4c-0.9-0.2-4.4-1.5-8-3c-3.6-1.5-9.2-3.8-12.6-5c-9.9-3.6-9.6-4.2-9.8,23.1c-0.1,23.2,0.2,26.7,2.7,27.7
			c0.8,0.3,8.4-2.3,16.9-5.7l15.4-6.1l50.3-0.3c36.1-0.2,50.2,0,50.2,0.8c0,0.6-1.1,2.6-2.4,4.3c-7.3,9.7-12.5,25.1-13.3,39.2
			c-2.3,39.8,25.3,73.4,65.7,80.1c1.9,0.3,14,0.6,26.8,0.6c20.7,0,23.4,0.2,23.8,1.7c2.9,9.6,12.1,12.9,18.8,6.6
			c1.5-1.5,2.6-3.3,3.2-5.3l0.6-2.9h27.9l1.8,4.3c2.2,4.9,6,7.3,11,6.9c4.4-0.4,8.2-3.4,9.7-7.6l1.2-3.4l14.1-0.1
			c11.6-0.1,14.1,0.1,14.1,1.3c0,2.6,2.8,6.8,5.7,8.4c5.8,3.4,13.4,0.5,16-6l1.4-3.7l26.7-0.1c31.5-0.1,38-1.1,51.7-7.8
			c20.3-9.9,33.5-25.8,40.7-48.6c3.2-10.4,3.2-28.9,0-40.2c-2.4-8.4-6.9-18.2-10.8-23.4c-1.3-1.7-2.4-3.7-2.4-4.3
			c0-1.6,52.5-1.2,61.5,0.5c9.3,1.8,10,2,17.1,4.9c14.1,5.8,16.9,8,46,36.8c13.2,13.1,23.2,22.5,25.2,23.8c1.3,0.9,2.6,0.2,2.6-1.6
			 M277.2,391.7v48l-23.6,0.2c-25.5,0.2-29.7-0.4-39.8-5.8c-12-6.4-21.9-21-24.1-35.5c-3.7-24.3,13.1-48.7,37.3-53.9
			c4.2-0.9,13.2-1.2,28.2-1.1l22,0.1V391.7z M328.7,391.7v48.5h-29v-47.8c0-26.3,0.3-48.2,0.7-48.5c0.4-0.3,6.9-0.7,14.5-0.7h13.8
			V391.7z M379.7,391.8v48.4h-29v-47.8c0-26.3,0.3-48.1,0.6-48.4c0.3-0.3,6.8-0.6,14.5-0.6l13.9,0.1V391.8z M458.2,344.9
			c17.5,4.1,31.3,17.5,36.1,34.8c1.9,6.8,1.7,19-0.2,25.6c-4,13.9-14.8,25.6-29.4,31.9c-5.3,2.3-6.6,2.4-33.7,2.8l-28.3,0.4v-97.1
			l24.8,0.1C444.7,343.5,454,343.9,458.2,344.9L458.2,344.9z"/>
		<path d="M267.1,285.3c-1.7,1.9-1.8,7.1-0.2,8.7c0.8,0.8,6.4,1.2,18.4,1.2c19,0,20.4-0.4,20.4-5.9c0-5-1.6-5.4-20.1-5.5
			C271.3,283.7,268.3,283.9,267.1,285.3z"/>
		<path d="M318.1,285.3c-1.7,1.8-1.8,5.2-0.4,8c1,1.8,2.3,1.9,18.1,1.9c9.8,0,17.8-0.4,19-1c2-1.1,2.6-6.3,1-8.9
			C354.4,283.1,320.1,283.1,318.1,285.3z"/>
		<path d="M369.3,285.6c-2,2-1.6,7.3,0.7,8.8c2.1,1.3,35.1,1,36.5-0.4c1.4-1.4,1.6-8.5,0.1-9.4c-0.7-0.4-8.9-0.7-18.3-0.8
			C372.9,283.7,371,283.9,369.3,285.6z"/>
	</g>
</g>
<path class="st0" d="M6,334"/>
<path class="st0" d="M254.4,51.1"/>
<path class="st0" d="M-557.6,51.1"/>
</svg>
